<svg width="134" height="134" viewBox="0 0 134 134" fill="none" xmlns="http://www.w3.org/2000/svg">
<path d="M50.3359 96.9997L97.0026 66.9997L50.3359 36.9997V96.9997ZM67.0026 133.666C57.7804 133.666 49.1137 131.915 41.0026 128.413C32.8915 124.911 25.8359 120.162 19.8359 114.166C13.8359 108.166 9.08705 101.111 5.58927 92.9997C2.09149 84.8886 0.340382 76.2219 0.335938 66.9997C0.335938 57.7775 2.08705 49.1108 5.58927 40.9997C9.09149 32.8886 13.8404 25.833 19.8359 19.833C25.8359 13.833 32.8915 9.08412 41.0026 5.58634C49.1137 2.08856 57.7804 0.337452 67.0026 0.333008C76.2248 0.333008 84.8915 2.08412 93.0026 5.58634C101.114 9.08856 108.169 13.8375 114.169 19.833C120.169 25.833 124.92 32.8886 128.423 40.9997C131.925 49.1108 133.674 57.7775 133.669 66.9997C133.669 76.2219 131.918 84.8886 128.416 92.9997C124.914 101.111 120.165 108.166 114.169 114.166C108.169 120.166 101.114 124.917 93.0026 128.42C84.8915 131.922 76.2248 133.671 67.0026 133.666ZM67.0026 120.333C81.8915 120.333 94.5026 115.166 104.836 104.833C115.169 94.4997 120.336 81.8886 120.336 66.9997C120.336 52.1108 115.169 39.4997 104.836 29.1663C94.5026 18.833 81.8915 13.6663 67.0026 13.6663C52.1137 13.6663 39.5026 18.833 29.1693 29.1663C18.8359 39.4997 13.6693 52.1108 13.6693 66.9997C13.6693 81.8886 18.8359 94.4997 29.1693 104.833C39.5026 115.166 52.1137 120.333 67.0026 120.333Z" fill="white"/>
</svg>
